<?xml version="1.0" encoding="UTF-8"?>
<svg version="1.1" xmlns="http://www.w3.org/2000/svg" width="2400" height="2400">
<path d="M0 0 C792 0 1584 0 2400 0 C2400 792 2400 1584 2400 2400 C1608 2400 816 2400 0 2400 C0 1608 0 816 0 0 Z " fill="none" transform="translate(0,0)"/>
<path d="M0 0 C2.1255228 0.37287905 4.25208348 0.73773177 6.38006592 1.09625244 C82.93204581 14.04983204 158.45456394 41.24569072 228.4274292 74.42584229 C229.61111084 74.98416748 230.79479248 75.54249268 232.01434326 76.11773682 C275.78132397 96.77973705 275.78132397 96.77973705 280.4274292 101.42584229 C281.97809601 101.58716542 283.53568619 101.68242448 285.09320068 101.75128174 C286.1039566 101.79852386 287.11471252 101.84576599 288.15609741 101.8944397 C289.27559784 101.94218536 290.39509827 101.98993103 291.54852295 102.03912354 C293.98252683 102.15160239 296.41652732 102.26415485 298.8505249 102.37677002 C300.15317291 102.43533173 301.45582092 102.49389343 302.79794312 102.55422974 C309.76113646 102.86772821 316.72320845 103.20488492 323.6852417 103.54302979 C324.40987169 103.57815863 325.13450169 103.61328747 325.88109016 103.64948082 C367.29276751 105.6634865 408.67680043 108.21373099 449.97186279 111.93902588 C454.46400951 112.34316399 458.95772109 112.72472189 463.45245361 113.09886169 C501.20550673 116.25371475 539.41852261 120.12198754 576.4274292 128.42584229 C577.59709229 128.68333252 578.76675537 128.94082275 579.97186279 129.20611572 C605.28421357 134.81073647 630.09992428 141.4349867 654.4274292 150.42584229 C655.47140869 150.80659912 656.51538818 151.18735596 657.59100342 151.57965088 C688.7196064 163.01872688 718.39595835 178.30345766 747.4821167 194.16021729 C748.55308594 194.7436792 748.55308594 194.7436792 749.64569092 195.33892822 C751.4274292 196.42584229 751.4274292 196.42584229 753.4274292 198.42584229 C748.38726718 197.79561794 743.56715234 196.78401003 738.6618042 195.45709229 C737.55496529 195.16305008 737.55496529 195.16305008 736.42576599 194.86306763 C734.83781474 194.44088872 733.25031768 194.01699834 731.66323853 193.59155273 C729.12886028 192.91283532 726.59298478 192.24000929 724.05657959 191.56890869 C720.5504874 190.64121474 717.04467068 189.71249935 713.53924561 188.7822876 C712.25319427 188.44106873 712.25319427 188.44106873 710.94116211 188.09295654 C709.31998043 187.66271457 707.69884268 187.23230705 706.07775879 186.80169678 C682.99214897 180.67323764 659.82925049 175.212962 636.4274292 170.42584229 C635.68619812 170.27415588 634.94496704 170.12246948 634.18127441 169.96618652 C610.13911321 165.06146693 585.9888092 160.7933982 561.7774353 156.81329346 C560.23149181 156.55841003 558.68588601 156.30146831 557.14065552 156.04229736 C543.26615216 153.71803116 529.34138565 152.01115362 515.3649292 150.42584229 C514.21605225 150.29511322 513.06717529 150.16438416 511.88348389 150.0296936 C504.06681767 149.14305344 496.24809701 148.27643292 488.4274292 147.42584229 C487.60140198 147.33562805 486.77537476 147.24541382 485.92431641 147.15246582 C475.44052135 146.01507162 464.94665127 145.14917537 454.4274292 144.42584229 C453.50004944 144.3601001 452.57266968 144.29435791 451.6171875 144.22662354 C417.87945129 141.84965135 384.22207948 141.13247898 350.41059494 141.11532211 C347.47724396 141.11337535 344.54391136 141.10826998 341.61056519 141.10275269 C320.83145264 141.07360359 300.1312774 141.33488984 279.39349365 142.73020935 C272.54244336 143.18856797 265.69484682 143.55601125 258.82904053 143.6663208 C256.93766106 143.70294579 256.93766106 143.70294579 255.0080719 143.74031067 C248.50233943 143.16894755 243.56139691 139.94158564 238.1149292 136.55084229 C236.24829166 135.44768089 234.37382692 134.35869695 232.49859619 133.2702179 C231.18466625 132.50695027 229.87291678 131.73991763 228.56329346 130.96928406 C220.80318944 126.41883651 212.81411608 122.32409641 204.8024292 118.23834229 C204.05808624 117.85778687 203.31374329 117.47723145 202.54684448 117.08514404 C197.51569025 114.51478487 192.47542033 111.96296596 187.4274292 109.42584229 C186.51731079 108.96821503 186.51731079 108.96821503 185.58880615 108.50134277 C132.01026888 81.61651863 75.22049292 59.41121808 16.96258545 45.05621338 C14.03972045 44.32943782 11.12485203 43.57354272 8.2086792 42.82037354 C-21.94224407 35.16000397 -52.68053566 29.99810203 -83.5725708 26.42584229 C-84.5321167 26.31401611 -85.4916626 26.20218994 -86.48028564 26.0869751 C-148.40096588 19.06287217 -212.49917733 22.45147952 -273.5725708 34.42584229 C-274.61574463 34.62645264 -275.65891846 34.82706299 -276.73370361 35.03375244 C-283.38883572 36.33283244 -289.98145256 37.83611735 -296.5725708 39.42584229 C-297.78477295 39.71233643 -298.9969751 39.99883057 -300.24591064 40.29400635 C-332.98152786 48.06512935 -365.21447324 58.16838397 -396.39678955 70.82818604 C-397.34813782 71.20725098 -398.29948608 71.58631592 -399.27966309 71.97686768 C-402.57909152 73.34477986 -402.57909152 73.34477986 -405.49024963 75.18673706 C-419.22428447 82.78233007 -434.6601308 81.32883925 -449.87845039 81.13559985 C-453.95556528 81.0913899 -458.03272877 81.08769369 -462.11004639 81.079422 C-469.80574277 81.0577958 -477.50073049 81.00053315 -485.19611692 80.92997557 C-493.96768349 80.85132253 -502.73928661 80.81314345 -511.51111889 80.77810752 C-529.53200236 80.70523612 -547.5522293 80.58237076 -565.5725708 80.42584229 C-562.89178032 77.6062356 -560.26192212 76.06992 -556.77178955 74.30865479 C-556.1921344 74.01532257 -555.61247925 73.72199036 -555.01525879 73.41976929 C-553.10076205 72.45543605 -551.18112538 71.50203919 -549.2600708 70.55084229 C-548.59597198 70.22047974 -547.93187317 69.89011719 -547.24765015 69.54974365 C-502.77195999 47.47410239 -455.51349256 30.26472162 -407.5725708 17.42584229 C-406.50699951 17.13548096 -405.44142822 16.84511963 -404.34356689 16.54595947 C-362.47719617 5.15952254 -319.71792547 -3.3634233 -276.60742188 -8.33911133 C-275.20770856 -8.50079272 -273.8081815 -8.66409221 -272.40881348 -8.82873535 C-181.5501785 -19.50914189 -89.97912747 -15.88648248 0 0 Z " fill="#EBECC2" transform="translate(1150.5725708007813,988.5741577148438)"/>
<path d="M0 0 C0.99821777 -0.00942627 1.99643555 -0.01885254 3.02490234 -0.02856445 C22.12472889 0.05561073 41.46303457 6.51507779 55.3515625 19.88671875 C74.7913047 40.09469819 79.1261846 66.06304995 78.83984375 93.15625 C78.64217192 101.07294521 77.56130458 108.58034478 75.625 116.25 C75.36759033 117.2699707 75.36759033 117.2699707 75.10498047 118.31054688 C70.17119232 137.09333284 60.74671635 154.12286953 43.625 164.25 C20.12624715 177.2001879 -7.8530477 178.57332971 -33.375 171.25 C-37.26484853 169.89127954 -40.78937837 168.27023492 -44.375 166.25 C-45.62603516 165.58871094 -45.62603516 165.58871094 -46.90234375 164.9140625 C-66.29543415 154.09696123 -75.04702799 136.78034062 -80.96142578 116.21044922 C-88.00398272 89.58057058 -84.5164892 58.60918659 -71.8203125 34.26953125 C-62.16069252 17.88515191 -46.6086962 7.09792568 -28.375 2.25 C-18.96924313 0.2994033 -9.57922842 0.0682867 0 0 Z " fill="#EAEBC2" transform="translate(1143.375,1252.75)"/>
<path d="M0 0 C16.97744432 16.19422437 24.76977472 38.32333913 25.33203125 61.55078125 C25.65611703 89.74830799 22.20685832 116.01203103 2.12890625 137.49609375 C-12.06817446 151.37605754 -32.12693768 157.0834534 -51.58203125 157.04296875 C-52.2894043 157.03458984 -52.99677734 157.02621094 -53.72558594 157.01757812 C-55.87159049 156.99608878 -58.01425022 157.01755027 -60.16015625 157.04296875 C-72.99254123 157.07031353 -85.74510428 154.93124458 -97.18359375 148.80859375 C-98.16984741 148.29268677 -98.16984741 148.29268677 -99.17602539 147.76635742 C-115.68060077 138.82998924 -126.23192768 124.19375866 -131.87109375 106.49609375 C-133.41067998 100.58403764 -134.53716899 94.59180541 -135.52709961 88.56567383 C-135.80359159 86.90220859 -136.12509843 85.24625614 -136.4609375 83.59375 C-139.73986291 58.8300562 -135.8843013 30.2304432 -120.59570312 9.79101562 C-108.51093242 -5.19551555 -91.26218405 -14.93216033 -72.05859375 -17.19140625 C-46.30054742 -18.96782324 -20.32358781 -17.72438066 0 0 Z " fill="#EBECC2" transform="translate(1581.87109375,1270.50390625)"/>
<path d="M0 0 C11.88 0 23.76 0 36 0 C36.0093457 3.48667236 36.01869141 6.97334473 36.02832031 10.56567383 C36.06214601 22.10881189 36.11752708 33.65179122 36.18390274 45.19478321 C36.22360848 52.19065008 36.25604369 59.18640585 36.27099609 66.18237305 C36.28545734 72.93877078 36.32066507 79.69481142 36.36830902 86.45105553 C36.38310191 89.02368862 36.39103981 91.59637091 36.39188385 94.1690464 C36.39426142 97.7833964 36.42140718 101.39680037 36.45410156 105.01098633 C36.4490712 106.0654747 36.44404083 107.11996307 36.43885803 108.20640564 C36.5664362 117.37236375 38.79054041 126.97350626 45 134 C53.39680659 139.95358862 59.52965937 141.2119488 69.625 141.3125 C70.57246094 141.34150391 71.51992188 141.37050781 72.49609375 141.40039062 C80.32583623 141.47001214 87.11022748 140.01062069 93.40234375 135.140625 C101.28176478 125.43670699 102.13862201 115.97430603 102.20532227 103.76220703 C102.21522186 102.63967026 102.22512146 101.51713348 102.23532104 100.36058044 C102.26684383 96.65967906 102.29165705 92.95876486 102.31640625 89.2578125 C102.33698373 86.68805614 102.35798041 84.11830311 102.37937927 81.54855347 C102.42888572 75.48201993 102.47417221 69.41546841 102.51740164 63.34888732 C102.56687292 56.43953849 102.6217542 49.5302359 102.67708123 42.62093186 C102.79072409 28.41399662 102.89688724 14.20701548 103 0 C114.88 0 126.76 0 139 0 C139.06792089 15.42152619 139.12309991 30.84297745 139.15543652 46.26461315 C139.17085516 53.42638216 139.19184796 60.58805111 139.22631836 67.74975586 C139.25637505 73.99746963 139.27561129 80.24511087 139.28226548 86.49289495 C139.28615046 89.79603237 139.2967886 93.09891605 139.31719017 96.40199852 C139.33913702 100.10430298 139.34195968 103.80618532 139.34057617 107.50854492 C139.351362 108.58389496 139.36214783 109.659245 139.3732605 110.7671814 C139.30645234 127.41366914 134.09378313 142.74521502 122.375 154.8203125 C115.07406235 161.5208441 107.2750966 165.6168705 98 169 C97.0409375 169.35191406 96.081875 169.70382812 95.09375 170.06640625 C73.7602381 176.50417057 47.96416047 174.48010667 28.30444336 164.13037109 C15.13139038 156.77694918 7.00627366 145.15086022 2 131 C0.14941454 123.22122986 -0.27998424 115.70475028 -0.22705078 107.7355957 C-0.22734283 106.56356094 -0.22763489 105.39152618 -0.22793579 104.18397522 C-0.22655337 100.34783265 -0.2110436 96.51188947 -0.1953125 92.67578125 C-0.1915785 90.00106986 -0.18863485 87.32636921 -0.18673706 84.6516571 C-0.18055023 78.35503069 -0.16417779 72.05847471 -0.14403808 65.76187915 C-0.12159138 58.58643801 -0.11066372 51.4109933 -0.10064721 44.23552573 C-0.07980868 29.49030971 -0.04316793 14.7451691 0 0 Z " fill="#EAEBC1" transform="translate(625,1255)"/>
<path d="M0 0 C40.26 0 80.52 0 122 0 C122 27.50791485 122 27.50791485 115 35.5625 C113.52188508 37.46494069 112.04536863 39.3686242 110.5703125 41.2734375 C109.81008789 42.21541992 109.04986328 43.15740234 108.26660156 44.12792969 C104.56586928 48.81722466 101.24174466 53.75602933 97.875 58.6875 C96.54111187 60.60949682 95.20519524 62.53008754 93.8671875 64.44921875 C92.89604004 65.84406494 92.89604004 65.84406494 91.90527344 67.26708984 C88.37321261 72.33345182 84.82827308 77.39078273 81.28417969 82.44873047 C75.5440965 90.64398758 69.83072819 98.85772938 64.12109375 107.07421875 C61.26432399 111.18464427 58.40157846 115.29083139 55.53515625 119.39453125 C54.80731934 120.43762451 54.07948242 121.48071777 53.32958984 122.55541992 C51.93406803 124.5551801 50.53731901 126.55408461 49.13916016 128.55200195 C48.50929199 129.45523193 47.87942383 130.35846191 47.23046875 131.2890625 C46.67770264 132.08006348 46.12493652 132.87106445 45.55541992 133.68603516 C43.95310806 136.06976013 42.47773607 138.53710655 41 141 C68.39 141 95.78 141 124 141 C124 150.57 124 160.14 124 170 C82.42 170 40.84 170 -2 170 C-2 141.59546494 -2 141.59546494 5.75 133.6328125 C9.35944025 129.71318598 12.24303109 125.42992157 15.1875 121 C16.28446081 119.38275788 17.38347209 117.76690495 18.484375 116.15234375 C19.05220703 115.31815918 19.62003906 114.48397461 20.20507812 113.62451172 C28.37214138 101.68273669 36.69973057 89.84939108 45 78 C50.08910264 70.73319069 55.17502701 63.46418623 60.25 56.1875 C60.87519531 55.29353516 61.50039062 54.39957031 62.14453125 53.47851562 C67.54755923 45.7236477 72.75334504 37.86998245 78 30 C52.26 30 26.52 30 0 30 C0 20.1 0 10.2 0 0 Z " fill="#EAEBC1" transform="translate(1775,1255)"/>
<path d="M0 0 C22.6750193 -0.35328438 45.29182614 0.56027612 67.94555664 1.42416382 C80.17933694 1.89041187 92.4138503 2.33675485 104.6484375 2.78125 C106.62538982 2.85323388 106.62538982 2.85323388 108.64228058 2.92667198 C132.66824414 3.79991392 156.69675419 4.58441677 180.7265625 5.34375 C181.6131497 5.37179159 182.49973689 5.39983319 183.41319036 5.42872453 C201.17344399 5.99036768 218.9338629 6.54665039 236.6944865 7.09646952 C243.42581197 7.30493534 250.15708624 7.51500694 256.88832867 7.72613657 C260.80641559 7.84891008 264.72452704 7.97071897 268.64271927 8.09008789 C277.76275476 8.36820653 286.88197598 8.66102388 296 9 C296.92818542 9.03418659 297.85637085 9.06837318 298.81268311 9.10359573 C301.08766448 9.19360962 303.36098683 9.29920546 305.63476562 9.4152832 C307.32841248 9.49840508 307.32841248 9.49840508 309.05627441 9.58320618 C314.33782627 10.33100624 318.52285829 12.72388455 323 15.5 C324.39726318 16.31259277 324.39726318 16.31259277 325.82275391 17.14160156 C327.69284015 18.23106579 329.55590915 19.33268049 331.41113281 20.44726562 C335.02794549 22.61653464 338.69705404 24.68672839 342.375 26.75 C343.01324707 27.11230713 343.65149414 27.47461426 344.30908203 27.84790039 C349.41154938 30.72790465 354.60980087 33.38035424 359.89819336 35.90234375 C363.39420893 37.59311198 366.64677856 39.37802848 369.84765625 41.58203125 C379.2297272 47.85534649 387.78373857 49.92453582 398.9609375 51.03515625 C400.41942347 51.19400393 401.87769835 51.3548003 403.33576965 51.51741028 C406.37416059 51.85471602 409.41327876 52.18371848 412.45321655 52.5067749 C418.91745862 53.19995424 425.36936742 53.99262214 431.82230759 54.78300476 C434.69817991 55.13451133 437.57459362 55.48147278 440.45101547 55.82844925 C444.19664576 56.28034694 447.94207012 56.73394477 451.6875 57.1875 C452.4693227 57.28216301 453.2511454 57.37682602 454.0566597 57.4743576 C479.09347428 60.50724562 504.1124013 63.66171332 529.12228775 66.90864182 C550.1932506 69.64355897 571.27234454 72.26955537 592.375 74.75 C593.58607422 74.89257233 594.79714844 75.03514465 596.04492188 75.18203735 C600.73080641 75.73364201 605.41675021 76.28474057 610.10275269 76.83534241 C620.34228494 78.03881899 630.58150953 79.24407721 640.81549072 80.49401855 C642.53907888 80.70337359 644.26299157 80.91007696 645.98724365 81.1138916 C648.30360087 81.38799551 650.61865513 81.67123016 652.93359375 81.95703125 C654.21290771 82.11147705 655.49222168 82.26592285 656.81030273 82.42504883 C659.67790078 82.94194078 661.47680562 83.64908061 664 85 C652.33383204 85.07105888 640.70069826 84.86958261 629.04199219 84.46508789 C627.31629751 84.40735091 625.59059429 84.34986875 623.86488342 84.2926178 C620.18087831 84.16986256 616.49693877 84.04534487 612.81304169 83.91938972 C606.94595231 83.71880404 601.07872994 83.5223081 595.21148682 83.32627869 C585.8920758 83.01443721 576.57275727 82.69992235 567.25347543 82.38424629 C550.66404049 81.82235237 534.07447658 81.26429732 517.48484349 80.70828623 C511.69571069 80.51414681 505.9066273 80.31861186 500.11757994 80.12194216 C482.04712734 79.50866441 463.9764122 78.9207338 445.90234375 78.42382812 C444.79067628 78.39270138 444.79067628 78.39270138 443.65655088 78.36094582 C434.40421964 78.10363372 425.15451204 77.93402922 415.89895821 77.85008335 C382.83120918 77.50238297 354.13907503 75.86636571 323.94873047 60.91210938 C318.5930157 58.27328077 313.04168935 56.23130478 307.4375 54.1875 C292.46256322 48.49588138 277.59565595 42.52003363 262.71069336 36.59838867 C261.18428726 35.99215416 261.18428726 35.99215416 259.62704468 35.37367249 C257.71775868 34.61536078 255.80896539 33.85580672 253.90078735 33.0947113 C251.27168411 32.05116174 248.63755778 31.02198022 246 30 C245.06273575 29.63302002 244.1254715 29.26604004 243.1598053 28.88793945 C237.86293978 26.87470101 233.04467721 25.45190471 227.36328125 24.921875 C225.88490392 24.7730293 224.40655263 24.62392471 222.92822266 24.47460938 C222.13804749 24.39976318 221.34787231 24.32491699 220.53375244 24.24780273 C216.84754457 23.88728906 213.16875486 23.4659939 209.48849487 23.04968262 C204.05628818 22.43657186 198.62177236 21.84447541 193.1875 21.25 C192.00615479 21.12061035 190.82480957 20.9912207 189.60766602 20.85791016 C169.49092955 18.65946215 149.36110769 16.61513346 129.22262573 14.62710571 C108.80035994 12.60868246 88.39764957 10.44331293 67.99975586 8.19287109 C52.19276765 6.44982696 36.38051241 4.76501406 20.5625 3.125 C19.50647583 3.01550018 18.45045166 2.90600037 17.36242676 2.79318237 C11.57514781 2.19354031 5.78767131 1.59584262 0 1 C0 0.67 0 0.34 0 0 Z " fill="#E9E9C0" transform="translate(528,1095)"/>
<path d="M0 0 C-2.05338861 6.51470776 -4.49534683 12.78730029 -7.1875 19.0625 C-7.55552734 19.92810547 -7.92355469 20.79371094 -8.30273438 21.68554688 C-9.19872592 23.79170883 -10.09784655 25.89647192 -11 28 C-15.94713889 26.54580343 -20.87400329 25.06211294 -25.75390625 23.39453125 C-37.86742786 19.34547795 -50.83422314 15.82878935 -63.3125 20.625 C-67.16441052 22.78983343 -69.286001 24.82678504 -71 29 C-71.70727025 34.4199236 -71.7136289 39.19893659 -69.6875 44.3125 C-62.09865794 51.90134206 -51.73911167 56.22751905 -42.1875 60.8125 C-26.25556602 68.60379587 -7.22691015 77.996809 -1 96 C2.90648544 109.38755412 2.69955587 123.56765962 -4 136 C-11.22198818 148.70568144 -22.73963057 156.13283155 -36.55078125 160.375 C-60.8813295 166.58375234 -87.19903889 162.77184047 -110 153 C-110 141.78 -110 130.56 -110 119 C-104.37353198 120.87548934 -99.06154442 122.7357559 -93.625 125 C-79.21823413 130.87539509 -60.50317619 135.96471383 -45.1875 130.3125 C-40.46293932 128.03444357 -38.17282313 125.22836394 -35.75 120.625 C-34.35747026 115.75114591 -34.51832604 112.22607918 -36.375 107.5 C-41.88637973 98.88220624 -53.58997152 94.41221161 -62.375 90 C-98.51793344 71.72456639 -98.51793344 71.72456639 -106.2734375 51.32421875 C-109.98737673 39.4436067 -108.92324525 26.32498829 -104 15 C-96.71005841 1.23944742 -85.41110656 -5.49525932 -70.921875 -10.23828125 C-49.45954909 -15.83340632 -18.69908185 -12.46605457 0 0 Z " fill="#EAEBC1" transform="translate(905,1265)"/>
<path d="M0 0 C-2.05338861 6.51470776 -4.49534683 12.78730029 -7.1875 19.0625 C-7.55552734 19.92810547 -7.92355469 20.79371094 -8.30273438 21.68554688 C-9.19872592 23.79170883 -10.09784655 25.89647192 -11 28 C-15.94713889 26.54580343 -20.87400329 25.06211294 -25.75390625 23.39453125 C-37.86742786 19.34547795 -50.83422314 15.82878935 -63.3125 20.625 C-67.16441052 22.78983343 -69.286001 24.82678504 -71 29 C-71.71604697 34.48718096 -71.74702558 39.24611385 -69.5625 44.375 C-63.04037121 51.0562051 -54.52520863 54.86658667 -46.20932007 58.86471558 C-27.17794962 68.04968613 -7.81426442 77.43498841 -0.125 98.5625 C3.58473388 112.69058832 1.13299112 127.30404722 -6.125 139.8125 C-14.21690998 151.5747911 -27.46922055 158.61828976 -41.24853516 161.54907227 C-62.291994 165.39294632 -85.31516247 163.38889701 -105 155 C-106.65 154.34 -108.3 153.68 -110 153 C-110 141.78 -110 130.56 -110 119 C-99.98305085 122.33898305 -99.98305085 122.33898305 -95.765625 123.97265625 C-81.26773819 129.54338205 -81.26773819 129.54338205 -66 132 C-64.75734375 132.07992188 -63.5146875 132.15984375 -62.234375 132.2421875 C-54.46832663 132.50518117 -47.74422768 132.14615195 -41 128 C-36.98545035 124.08581409 -35.29083946 120.20207022 -34.5625 114.6875 C-35.26703621 108.74926623 -37.54513236 104.94006871 -42.25390625 101.21875 C-45.10888853 99.34663047 -48.01370539 97.65501102 -51 96 C-52.15113281 95.36191406 -53.30226563 94.72382812 -54.48828125 94.06640625 C-59.61716811 91.27169746 -64.77645026 88.56113893 -70.05859375 86.06640625 C-86.46262778 78.27827503 -98.6676195 69.12733408 -106 52 C-110.6115644 39.04370001 -108.32943837 25.16164145 -102.875 12.875 C-96.85057182 1.57919715 -86.11548407 -5.34030165 -74.19580078 -9.3581543 C-51.70261346 -15.9330475 -19.80987667 -13.20658445 0 0 Z " fill="#EAEBC1" transform="translate(1036,1265)"/>
<path d="M0 0 C12.87 0 25.74 0 39 0 C46.75775079 14.59521232 54.20837064 29.32301547 61.5625 44.125 C63.70735323 48.44124464 65.85484673 52.75616095 68.00390625 57.0703125 C68.49234512 58.05548859 68.980784 59.04066467 69.48402405 60.05569458 C69.93216965 60.955289 70.38031525 61.85488342 70.84204102 62.78173828 C71.23601578 63.57492462 71.62999054 64.36811096 72.03590393 65.18533325 C72.86841689 66.96598087 72.86841689 66.96598087 74 68 C85.22 45.56 96.44 23.12 108 0 C120.87 0 133.74 0 147 0 C145.55798434 3.60503915 144.09031434 6.89857752 142.3125 10.32421875 C141.78406494 11.34314209 141.25562988 12.36206543 140.71118164 13.41186523 C140.1464917 14.49282471 139.58180176 15.57378418 139 16.6875 C138.41404053 17.81164307 137.82808105 18.93578613 137.22436523 20.09399414 C133.5370197 27.13941305 129.76568943 34.12764892 125.86987305 41.05957031 C123.47248183 45.33154529 121.11595622 49.62242089 118.796875 53.9375 C118.25759369 54.94086395 117.71831238 55.94422791 117.16268921 56.97799683 C115.98243481 59.18484888 114.81039098 61.39612537 113.64920044 63.61306763 C110.67003666 69.25348161 107.62500668 74.67889509 104.05517578 79.97607422 C92.23103734 98.06826211 90.90136673 113.19020306 91.50646973 134.37615967 C91.61845299 138.99565237 91.6140082 143.61651356 91.63051605 148.23714447 C91.66758384 155.16291575 91.84646456 162.07147042 92 169 C80.12 169 68.24 169 56 169 C56.04382812 164.52824219 56.08765625 160.05648438 56.1328125 155.44921875 C56.13831994 152.57334169 56.14082158 149.69806018 56.1328125 146.82226562 C56.12044494 142.28224409 56.11770333 137.74401808 56.18164062 133.2043457 C56.40943024 116.07295744 56.33545956 101.40768021 46.21466064 86.78164673 C44.54811575 84.3371827 43.18943678 81.76060333 41.8203125 79.140625 C40.92282747 77.50989211 40.02440282 75.87967596 39.125 74.25 C34.98906037 66.71399571 30.95560632 59.13213017 27 51.5 C22.54481213 42.90436525 17.96894809 34.38351024 13.31542969 25.89379883 C10.09180721 20.010098 6.89732588 14.11239954 3.75 8.1875 C3.36690674 7.46965332 2.98381348 6.75180664 2.58911133 6.01220703 C0 1.12024827 0 1.12024827 0 0 Z " fill="#EAEBC2" transform="translate(1619,1256)"/>
<path d="M0 0 C42.24 0 84.48 0 128 0 C128 9.57 128 19.14 128 29 C112.82 29 97.64 29 82 29 C82 75.2 82 121.4 82 169 C70.12 169 58.24 169 46 169 C46 122.8 46 76.6 46 29 C30.82 29 15.64 29 0 29 C0 19.43 0 9.86 0 0 Z " fill="#EBECC2" transform="translate(1303,1256)"/>
<path d="M0 0 C8.76423376 6.05234995 13.5720237 13.87125688 16.8125 23.875 C17.29203125 25.34259766 17.29203125 25.34259766 17.78125 26.83984375 C23.21489772 47.19086691 21.89131776 73.70168417 11.5078125 92.35546875 C6.92430238 99.16736743 1.48945749 103.9268148 -6.1875 106.875 C-7.04601563 107.23207031 -7.90453125 107.58914063 -8.7890625 107.95703125 C-13.3813128 109.19746668 -17.70189369 109.20434071 -22.4375 109.1875 C-23.32824219 109.20361328 -24.21898437 109.21972656 -25.13671875 109.23632812 C-36.13481765 109.24430933 -44.10691403 106.32905943 -52.1875 98.875 C-65.26541089 85.49986387 -66.5461699 66.5106485 -66.49169922 48.80126953 C-66.19085951 32.72240934 -63.52126766 16.97519048 -52.1875 4.875 C-38.60790551 -8.04287696 -16.06700872 -8.94675438 0 0 Z " fill="#010100" transform="translate(1164.1875,1288.125)"/>
<path d="M0 0 C11.58622388 9.86532886 16.79415932 22.63646013 18.07373047 37.69238281 C18.93701018 51.49904481 19.50172434 65.71195633 15.21875 79.01171875 C14.89003906 80.05199219 14.56132813 81.09226562 14.22265625 82.1640625 C10.72755571 91.75442487 4.35726068 100.15080882 -4.78125 105.01171875 C-11.20740946 107.88846274 -16.58499866 108.52502155 -23.59375 108.44921875 C-25.05578857 108.43785889 -25.05578857 108.43785889 -26.54736328 108.42626953 C-37.31177884 108.17945364 -45.8540365 105.5198725 -53.78125 98.01171875 C-66.64648958 84.41480678 -68.40425401 65.14280131 -68 47.36328125 C-67.43993237 31.50776655 -64.80098543 14.39033766 -52.64453125 3.01171875 C-38.82986048 -8.24641702 -14.97821631 -10.70774172 0 0 Z " fill="#010100" transform="translate(1550.78125,1288.98828125)"/>
<path d="M0 0 C11.88 0 23.76 0 36 0 C36 46.53 36 93.06 36 141 C58.77 141 81.54 141 105 141 C105 150.57 105 160.14 105 170 C70.35 170 35.7 170 0 170 C0 113.9 0 57.8 0 0 Z " fill="#EBECC3" transform="translate(494,1255)"/>
<path d="M0 0 C11.66711992 -0.18187794 23.33327434 -0.32815552 35.00150013 -0.41449738 C40.42154585 -0.45597026 45.84055844 -0.51207764 51.26000977 -0.60351562 C56.50563658 -0.69145098 61.75027988 -0.73848291 66.99658775 -0.75901794 C68.98225039 -0.77362138 70.96786883 -0.80213019 72.95310402 -0.84584045 C87.36654628 -1.15011153 98.19402243 1.36624284 111 8 C111.75562037 8.38743378 112.51124073 8.77486755 113.28975868 9.17404175 C126.45758637 15.97998804 142.83570792 25.30360662 148 40 C134.94215997 44.68546024 121.73828319 47.19547028 108 49 C106.72511719 49.17402344 105.45023438 49.34804687 104.13671875 49.52734375 C98.52585129 49.9256245 95.0908061 49.22796459 90.35987854 46.12020874 C77.67733761 38.17800236 62.43992764 40.11244654 48.0625 40.375 C15.2335541 40.91362015 15.2335541 40.91362015 0 34 C0 22.78 0 11.56 0 0 Z " fill="#AD0301" transform="translate(494,1115)"/>
<path d="M0 0 C5.28 0.66 10.56 1.32 16 2 C16 2.33 16 2.66 16 3 C10.39 3 4.78 3 -1 3 C-0.67 2.01 -0.34 1.02 0 0 Z " fill="#C9C9A6" transform="translate(1176,1177)"/>
<path d="M0 0 C0.66 0.66 1.32 1.32 2 2 C-2.05606165 1.53199289 -5.46588679 1.12046792 -9 -1 C-5.19825711 -2.26724763 -3.6488868 -1.4750819 0 0 Z " fill="#A4A588" transform="translate(1902,1185)"/>
</svg>
